<?xml version="1.0" encoding="UTF-8" standalone="no"?>
<!-- Created with Inkscape (http://www.inkscape.org/) -->

<svg
   xmlns:dc="http://purl.org/dc/elements/1.1/"
   xmlns:cc="http://creativecommons.org/ns#"
   xmlns:rdf="http://www.w3.org/1999/02/22-rdf-syntax-ns#"
   xmlns:svg="http://www.w3.org/2000/svg"
   xmlns="http://www.w3.org/2000/svg"
   xmlns:sodipodi="http://sodipodi.sourceforge.net/DTD/sodipodi-0.dtd"
   xmlns:inkscape="http://www.inkscape.org/namespaces/inkscape"
   width="210mm"
   height="297mm"
   viewBox="0 0 210 297"
   version="1.1"
   id="svg2035"
   inkscape:version="0.92.4 (5da689c313, 2019-01-14)"
   sodipodi:docname="scanlines.svg">
  <defs
     id="defs2029" />
  <sodipodi:namedview
     id="base"
     pagecolor="#ffffff"
     bordercolor="#666666"
     borderopacity="1.0"
     inkscape:pageopacity="0.0"
     inkscape:pageshadow="2"
     inkscape:zoom="0.35"
     inkscape:cx="-64.285714"
     inkscape:cy="560"
     inkscape:document-units="mm"
     inkscape:current-layer="layer1"
     showgrid="false"
     inkscape:window-width="1920"
     inkscape:window-height="1017"
     inkscape:window-x="1912"
     inkscape:window-y="-8"
     inkscape:window-maximized="1" />
  <metadata
     id="metadata2032">
    <rdf:RDF>
      <cc:Work
         rdf:about="">
        <dc:format>image/svg+xml</dc:format>
        <dc:type
           rdf:resource="http://purl.org/dc/dcmitype/StillImage" />
        <dc:title></dc:title>
      </cc:Work>
    </rdf:RDF>
  </metadata>
  <g
     inkscape:label="Layer 1"
     inkscape:groupmode="layer"
     id="layer1">
    <g
       id="Group_1"
       data-name="Group 1"
       style="opacity:0.05"
       transform="matrix(0.10057077,0,0,0.10057077,5.7830386,104.08095)">
      <rect
         id="Rectangle_2"
         data-name="Rectangle 2"
         width="1922"
         height="6"
         x="0"
         y="0" />
      <rect
         id="Rectangle_2-2"
         data-name="Rectangle 2"
         width="1922"
         height="6"
         transform="translate(0,14)"
         x="0"
         y="0" />
      <rect
         id="Rectangle_2-3"
         data-name="Rectangle 2"
         width="1922"
         height="6"
         transform="translate(0,28)"
         x="0"
         y="0" />
      <rect
         id="Rectangle_2-4"
         data-name="Rectangle 2"
         width="1922"
         height="6"
         transform="translate(0,42)"
         x="0"
         y="0" />
      <rect
         id="Rectangle_2-5"
         data-name="Rectangle 2"
         width="1922"
         height="6"
         transform="translate(0,56)"
         x="0"
         y="0" />
      <rect
         id="Rectangle_2-6"
         data-name="Rectangle 2"
         width="1922"
         height="6"
         transform="translate(0,70)"
         x="0"
         y="0" />
      <rect
         id="Rectangle_2-7"
         data-name="Rectangle 2"
         width="1922"
         height="6"
         transform="translate(0,84)"
         x="0"
         y="0" />
      <rect
         id="Rectangle_2-8"
         data-name="Rectangle 2"
         width="1922"
         height="6"
         transform="translate(0,98)"
         x="0"
         y="0" />
      <rect
         id="Rectangle_2-9"
         data-name="Rectangle 2"
         width="1922"
         height="6"
         transform="translate(0,112)"
         x="0"
         y="0" />
      <rect
         id="Rectangle_2-10"
         data-name="Rectangle 2"
         width="1922"
         height="6"
         transform="translate(0,126)"
         x="0"
         y="0" />
      <rect
         id="Rectangle_2-11"
         data-name="Rectangle 2"
         width="1922"
         height="6"
         transform="translate(0,140)"
         x="0"
         y="0" />
      <rect
         id="Rectangle_2-12"
         data-name="Rectangle 2"
         width="1922"
         height="6"
         transform="translate(0,154)"
         x="0"
         y="0" />
      <rect
         id="Rectangle_2-13"
         data-name="Rectangle 2"
         width="1922"
         height="6"
         transform="translate(0,168)"
         x="0"
         y="0" />
      <rect
         id="Rectangle_2-14"
         data-name="Rectangle 2"
         width="1922"
         height="6"
         transform="translate(0,182)"
         x="0"
         y="0" />
      <rect
         id="Rectangle_2-15"
         data-name="Rectangle 2"
         width="1922"
         height="6"
         transform="translate(0,196)"
         x="0"
         y="0" />
      <rect
         id="Rectangle_2-16"
         data-name="Rectangle 2"
         width="1922"
         height="6"
         transform="translate(0,210)"
         x="0"
         y="0" />
      <rect
         id="Rectangle_2-17"
         data-name="Rectangle 2"
         width="1922"
         height="6"
         transform="translate(0,224)"
         x="0"
         y="0" />
      <rect
         id="Rectangle_2-18"
         data-name="Rectangle 2"
         width="1922"
         height="6"
         transform="translate(0,238)"
         x="0"
         y="0" />
      <rect
         id="Rectangle_2-19"
         data-name="Rectangle 2"
         width="1922"
         height="6"
         transform="translate(0,252)"
         x="0"
         y="0" />
      <rect
         id="Rectangle_2-20"
         data-name="Rectangle 2"
         width="1922"
         height="6"
         transform="translate(0,266)"
         x="0"
         y="0" />
      <rect
         id="Rectangle_2-21"
         data-name="Rectangle 2"
         width="1922"
         height="6"
         transform="translate(0,280)"
         x="0"
         y="0" />
      <rect
         id="Rectangle_2-22"
         data-name="Rectangle 2"
         width="1922"
         height="6"
         transform="translate(0,294)"
         x="0"
         y="0" />
      <rect
         id="Rectangle_2-23"
         data-name="Rectangle 2"
         width="1922"
         height="6"
         transform="translate(0,308)"
         x="0"
         y="0" />
      <rect
         id="Rectangle_2-24"
         data-name="Rectangle 2"
         width="1922"
         height="6"
         transform="translate(0,322)"
         x="0"
         y="0" />
      <rect
         id="Rectangle_2-25"
         data-name="Rectangle 2"
         width="1922"
         height="6"
         transform="translate(0,336)"
         x="0"
         y="0" />
      <rect
         id="Rectangle_2-26"
         data-name="Rectangle 2"
         width="1922"
         height="6"
         transform="translate(0,350)"
         x="0"
         y="0" />
      <rect
         id="Rectangle_2-27"
         data-name="Rectangle 2"
         width="1922"
         height="6"
         transform="translate(0,364)"
         x="0"
         y="0" />
      <rect
         id="Rectangle_2-28"
         data-name="Rectangle 2"
         width="1922"
         height="6"
         transform="translate(0,378)"
         x="0"
         y="0" />
      <rect
         id="Rectangle_2-29"
         data-name="Rectangle 2"
         width="1922"
         height="6"
         transform="translate(0,392)"
         x="0"
         y="0" />
      <rect
         id="Rectangle_2-30"
         data-name="Rectangle 2"
         width="1922"
         height="6"
         transform="translate(0,406)"
         x="0"
         y="0" />
      <rect
         id="Rectangle_2-31"
         data-name="Rectangle 2"
         width="1922"
         height="6"
         transform="translate(0,420)"
         x="0"
         y="0" />
      <rect
         id="Rectangle_2-32"
         data-name="Rectangle 2"
         width="1922"
         height="6"
         transform="translate(0,434)"
         x="0"
         y="0" />
      <rect
         id="Rectangle_2-33"
         data-name="Rectangle 2"
         width="1922"
         height="6"
         transform="translate(0,448)"
         x="0"
         y="0" />
      <rect
         id="Rectangle_2-34"
         data-name="Rectangle 2"
         width="1922"
         height="6"
         transform="translate(0,462)"
         x="0"
         y="0" />
      <rect
         id="Rectangle_2-35"
         data-name="Rectangle 2"
         width="1922"
         height="6"
         transform="translate(0,476)"
         x="0"
         y="0" />
      <rect
         id="Rectangle_2-36"
         data-name="Rectangle 2"
         width="1922"
         height="6"
         transform="translate(0,490)"
         x="0"
         y="0" />
      <rect
         id="Rectangle_2-37"
         data-name="Rectangle 2"
         width="1922"
         height="6"
         transform="translate(0,504)"
         x="0"
         y="0" />
      <rect
         id="Rectangle_2-38"
         data-name="Rectangle 2"
         width="1922"
         height="6"
         transform="translate(0,518)"
         x="0"
         y="0" />
      <rect
         id="Rectangle_2-39"
         data-name="Rectangle 2"
         width="1922"
         height="6"
         transform="translate(0,532)"
         x="0"
         y="0" />
      <rect
         id="Rectangle_2-40"
         data-name="Rectangle 2"
         width="1922"
         height="6"
         transform="translate(0,546)"
         x="0"
         y="0" />
      <rect
         id="Rectangle_2-41"
         data-name="Rectangle 2"
         width="1922"
         height="6"
         transform="translate(0,560)"
         x="0"
         y="0" />
      <rect
         id="Rectangle_2-42"
         data-name="Rectangle 2"
         width="1922"
         height="6"
         transform="translate(0,574)"
         x="0"
         y="0" />
      <rect
         id="Rectangle_2-43"
         data-name="Rectangle 2"
         width="1922"
         height="6"
         transform="translate(0,588)"
         x="0"
         y="0" />
      <rect
         id="Rectangle_2-44"
         data-name="Rectangle 2"
         width="1922"
         height="6"
         transform="translate(0,602)"
         x="0"
         y="0" />
      <rect
         id="Rectangle_2-45"
         data-name="Rectangle 2"
         width="1922"
         height="6"
         transform="translate(0,616)"
         x="0"
         y="0" />
      <rect
         id="Rectangle_2-46"
         data-name="Rectangle 2"
         width="1922"
         height="6"
         transform="translate(0,630)"
         x="0"
         y="0" />
      <rect
         id="Rectangle_2-47"
         data-name="Rectangle 2"
         width="1922"
         height="6"
         transform="translate(0,644)"
         x="0"
         y="0" />
      <rect
         id="Rectangle_2-48"
         data-name="Rectangle 2"
         width="1922"
         height="6"
         transform="translate(0,658)"
         x="0"
         y="0" />
    </g>
  </g>
</svg>
